<svg width="22" height="24" viewBox="0 0 22 24" fill="none" xmlns="http://www.w3.org/2000/svg">
<path fill-rule="evenodd" clip-rule="evenodd" d="M18 11V8C18 4.13401 14.866 1 11 1C7.13401 1 4 4.13401 4 8V11C4 14.3 1 15.1 1 17C1 18.7 4.9 20 11 20C17.1 20 21 18.7 21 17C21 15.1 18 14.3 18 11Z" stroke="white" stroke-opacity="0.2" stroke-width="2" stroke-linecap="round" stroke-linejoin="round"/>
<path d="M10.9995 22.0004C9.98853 22.0004 9.03853 21.9664 8.14453 21.9004C8.5357 23.1482 9.69187 23.9974 10.9995 23.9974C12.3072 23.9974 13.4634 23.1482 13.8545 21.9004C12.9605 21.9664 12.0105 22.0004 10.9995 22.0004Z" fill="white" fill-opacity="0.2"/>
</svg>
