<svg width="26" height="26" viewBox="0 0 26 26" fill="none" xmlns="http://www.w3.org/2000/svg">
<g clip-path="url(#clip0_615_4001)">
<path d="M0.8125 1.625C0.597012 1.625 0.390349 1.7106 0.237976 1.86298C0.0856024 2.01535 0 2.22201 0 2.4375C0 2.65299 0.0856024 2.85965 0.237976 3.01202C0.390349 3.1644 0.597012 3.25 0.8125 3.25H2.61625L3.26787 5.86138L5.70213 18.837C5.73698 19.0232 5.83579 19.1913 5.98148 19.3124C6.12717 19.4335 6.31058 19.4998 6.5 19.5H8.125C7.26305 19.5 6.4364 19.8424 5.8269 20.4519C5.21741 21.0614 4.875 21.888 4.875 22.75C4.875 23.612 5.21741 24.4386 5.8269 25.0481C6.4364 25.6576 7.26305 26 8.125 26C8.98695 26 9.8136 25.6576 10.4231 25.0481C11.0326 24.4386 11.375 23.612 11.375 22.75C11.375 21.888 11.0326 21.0614 10.4231 20.4519C9.8136 19.8424 8.98695 19.5 8.125 19.5H19.5C18.638 19.5 17.8114 19.8424 17.2019 20.4519C16.5924 21.0614 16.25 21.888 16.25 22.75C16.25 23.612 16.5924 24.4386 17.2019 25.0481C17.8114 25.6576 18.638 26 19.5 26C20.362 26 21.1886 25.6576 21.7981 25.0481C22.4076 24.4386 22.75 23.612 22.75 22.75C22.75 21.888 22.4076 21.0614 21.7981 20.4519C21.1886 19.8424 20.362 19.5 19.5 19.5H21.125C21.3144 19.4998 21.4978 19.4335 21.6435 19.3124C21.7892 19.1913 21.888 19.0232 21.9229 18.837L24.3604 5.837C24.3823 5.71974 24.3782 5.59908 24.3482 5.48359C24.3183 5.36811 24.2633 5.26063 24.1871 5.16881C24.111 5.07698 24.0155 5.00305 23.9076 4.95227C23.7996 4.90149 23.6818 4.87511 23.5625 4.875H4.69625L4.03813 2.24087C3.99427 2.06502 3.89287 1.90889 3.75006 1.79729C3.60726 1.68569 3.43124 1.62505 3.25 1.625H0.8125ZM9.75 22.75C9.75 23.181 9.57879 23.5943 9.27405 23.899C8.9693 24.2038 8.55598 24.375 8.125 24.375C7.69402 24.375 7.2807 24.2038 6.97595 23.899C6.67121 23.5943 6.5 23.181 6.5 22.75C6.5 22.319 6.67121 21.9057 6.97595 21.601C7.2807 21.2962 7.69402 21.125 8.125 21.125C8.55598 21.125 8.9693 21.2962 9.27405 21.601C9.57879 21.9057 9.75 22.319 9.75 22.75ZM21.125 22.75C21.125 23.181 20.9538 23.5943 20.649 23.899C20.3443 24.2038 19.931 24.375 19.5 24.375C19.069 24.375 18.6557 24.2038 18.351 23.899C18.0462 23.5943 17.875 23.181 17.875 22.75C17.875 22.319 18.0462 21.9057 18.351 21.601C18.6557 21.2962 19.069 21.125 19.5 21.125C19.931 21.125 20.3443 21.2962 20.649 21.601C20.9538 21.9057 21.125 22.319 21.125 22.75ZM18.4503 10.3253L13.5753 15.2003C13.4998 15.2759 13.4101 15.3359 13.3114 15.3769C13.2127 15.4179 13.1069 15.439 13 15.439C12.8931 15.439 12.7873 15.4179 12.6886 15.3769C12.5899 15.3359 12.5002 15.2759 12.4247 15.2003L9.98725 12.7628C9.91171 12.6872 9.85178 12.5975 9.8109 12.4988C9.77002 12.4001 9.74897 12.2943 9.74897 12.1875C9.74897 12.0807 9.77002 11.9749 9.8109 11.8762C9.85178 11.7775 9.91171 11.6878 9.98725 11.6122C10.0628 11.5367 10.1525 11.4768 10.2512 11.4359C10.3499 11.395 10.4557 11.374 10.5625 11.374C10.6693 11.374 10.7751 11.395 10.8738 11.4359C10.9725 11.4768 11.0622 11.5367 11.1378 11.6122L13 13.4761L17.2997 9.17475C17.3753 9.09921 17.465 9.03928 17.5637 8.9984C17.6624 8.95752 17.7682 8.93647 17.875 8.93647C17.9818 8.93647 18.0876 8.95752 18.1863 8.9984C18.285 9.03928 18.3747 9.09921 18.4503 9.17475C18.5258 9.25029 18.5857 9.33997 18.6266 9.43868C18.6675 9.53738 18.6885 9.64317 18.6885 9.75C18.6885 9.85683 18.6675 9.96262 18.6266 10.0613C18.5857 10.16 18.5258 10.2497 18.4503 10.3253Z" fill="#3F8CFF"/>
</g>
<defs>
<clipPath id="clip0_615_4001">
<rect width="26" height="26" fill="white"/>
</clipPath>
</defs>
</svg>
