<svg width="37" height="37" viewBox="0 0 37 37" fill="none" xmlns="http://www.w3.org/2000/svg">
<g clip-path="url(#clip0_615_3944)">
<path d="M4.21731 18.3664C3.96473 18.0056 3.86579 17.5593 3.94226 17.1257C4.01873 16.692 4.26434 16.3064 4.62507 16.0539L20.9466 4.62539C21.3073 4.37281 21.7536 4.27387 22.1873 4.35034C22.621 4.42681 23.0065 4.67242 23.2591 5.03315L4.21731 18.3664ZM21.3572 22.5808C22.0786 22.0756 22.5699 21.3045 22.7228 20.4372C22.8757 19.5698 22.6779 18.6772 22.1727 17.9558C21.6675 17.2343 20.8965 16.7431 20.0291 16.5902C19.1617 16.4372 18.2692 16.6351 17.5477 17.1403C16.8262 17.6454 16.335 18.4165 16.1821 19.2839C16.0291 20.1512 16.227 21.0438 16.7322 21.7653C17.2374 22.4867 18.0084 22.978 18.8758 23.1309C19.7431 23.2838 20.6357 23.0859 21.3572 22.5808Z" fill="#FFCE73"/>
<path d="M4.76213 22.0384C4.50955 21.6777 4.41061 21.2314 4.48708 20.7977C4.56355 20.364 4.80916 19.9785 5.16989 19.7259L24.2117 6.39271C24.5724 6.14012 25.0187 6.04118 25.4524 6.11765C25.8861 6.19412 26.2716 6.43974 26.5242 6.80047L34.1432 17.6815C34.3957 18.0422 34.4947 18.4885 34.4182 18.9222C34.3417 19.3559 34.0961 19.7414 33.7354 19.994L14.6936 33.3272C14.3329 33.5798 13.8866 33.6787 13.4529 33.6023C13.0192 33.5258 12.6337 33.2802 12.3811 32.9194L4.76213 22.0384ZM8.84252 19.1813C9.34769 19.9028 9.54557 20.7953 9.39263 21.6627C9.23969 22.5301 8.74846 23.3011 8.02701 23.8063L11.8365 29.2468C12.558 28.7416 13.4505 28.5438 14.3179 28.6967C15.1852 28.8496 15.9563 29.3409 16.4615 30.0623L30.0628 20.5386C29.5576 19.8172 29.3597 18.9246 29.5127 18.0572C29.6656 17.1899 30.1568 16.4188 30.8783 15.9136L27.0688 10.4731C26.3473 10.9783 25.4548 11.1761 24.5874 11.0232C23.72 10.8703 22.949 10.379 22.4438 9.65758L8.84252 19.1813Z" fill="#FFCE73"/>
</g>
<defs>
<clipPath id="clip0_615_3944">
<rect width="26" height="26" fill="white" transform="translate(0 15.2381) scale(1.02179) rotate(-35)"/>
</clipPath>
</defs>
</svg>
