<svg width="26" height="26" viewBox="0 0 26 26" fill="none" xmlns="http://www.w3.org/2000/svg">
<path d="M23.1113 10.8331H22.3891V6.49978C22.3891 6.30824 22.313 6.12454 22.1776 5.98909C22.0421 5.85365 21.8584 5.77756 21.6669 5.77756H4.33355C4.16254 5.78035 3.99609 5.72236 3.86383 5.61391C3.73157 5.50545 3.6421 5.35359 3.61133 5.18534V4.92534C3.6421 4.75709 3.73157 4.60522 3.86383 4.49677C3.99609 4.38832 4.16254 4.33033 4.33355 4.33312H21.3636C21.5551 4.33312 21.7388 4.25703 21.8742 4.12158C22.0097 3.98614 22.0858 3.80244 22.0858 3.61089C22.0858 3.41935 22.0097 3.23565 21.8742 3.10021C21.7388 2.96476 21.5551 2.88867 21.3636 2.88867H4.33355C3.75892 2.88867 3.20782 3.11695 2.80149 3.52327C2.39516 3.9296 2.16689 4.4807 2.16689 5.05534C2.16182 5.14193 2.16182 5.22875 2.16689 5.31534V20.1714C2.16972 20.5603 2.24912 20.9448 2.40056 21.303C2.55199 21.6612 2.7725 21.986 3.04947 22.2589C3.32645 22.5319 3.65448 22.7476 4.01484 22.8938C4.37519 23.04 4.7608 23.1137 5.14967 23.1109H21.6669C21.8584 23.1109 22.0421 23.0348 22.1776 22.8994C22.313 22.7639 22.3891 22.5802 22.3891 22.3887V18.0553H23.1113C23.3029 18.0553 23.4866 17.9792 23.622 17.8438C23.7575 17.7084 23.8336 17.5247 23.8336 17.3331V11.5553C23.8336 11.3638 23.7575 11.1801 23.622 11.0447C23.4866 10.9092 23.3029 10.8331 23.1113 10.8331ZM20.9447 21.6664H5.14967C4.74797 21.6703 4.36098 21.5154 4.0729 21.2355C3.78481 20.9555 3.61893 20.5731 3.61133 20.1714V7.13534C3.84577 7.20328 4.0897 7.23255 4.33355 7.222H20.9447V10.8331H15.8891C14.9314 10.8331 14.0129 11.2136 13.3357 11.8908C12.6585 12.568 12.278 13.4865 12.278 14.4442C12.278 15.402 12.6585 16.3205 13.3357 16.9977C14.0129 17.6749 14.9314 18.0553 15.8891 18.0553H20.9447V21.6664ZM22.3891 16.6109H15.8891C15.3145 16.6109 14.7634 16.3826 14.357 15.9763C13.9507 15.57 13.7224 15.0189 13.7224 14.4442C13.7224 13.8696 13.9507 13.3185 14.357 12.9122C14.7634 12.5058 15.3145 12.2776 15.8891 12.2776H22.3891V16.6109Z" fill="#FF9A7B"/>
<path d="M16.6185 15.528C17.2168 15.528 17.7018 15.043 17.7018 14.4447C17.7018 13.8464 17.2168 13.3613 16.6185 13.3613C16.0202 13.3613 15.5352 13.8464 15.5352 14.4447C15.5352 15.043 16.0202 15.528 16.6185 15.528Z" fill="#FF9A7B"/>
</svg>
