<svg width="20" height="22" viewBox="0 0 20 22" fill="none" xmlns="http://www.w3.org/2000/svg">
<path fill-rule="evenodd" clip-rule="evenodd" d="M14.1143 0C14.5379 0 14.8817 0.343814 14.8817 0.767442L14.8822 1.63497C16.3763 1.7374 17.6171 2.24916 18.4953 3.12922C19.4541 4.0921 19.9586 5.47657 19.9535 7.13731V16.4725C19.9535 19.882 17.7883 22.0001 14.3041 22.0001H5.6494C2.16521 22.0001 0 19.8523 0 16.3947V7.13527C0 3.91937 1.93094 1.8551 5.08014 1.63532L5.08077 0.767442C5.08077 0.343814 5.42459 0 5.84821 0C6.27184 0 6.61566 0.343814 6.61566 0.767442L6.61535 1.61572H13.3463L13.3468 0.767442C13.3468 0.343814 13.6907 0 14.1143 0ZM18.4186 9.11107H1.53488V16.3947C1.53488 19.0204 2.99609 20.4652 5.6494 20.4652H14.3041C16.9574 20.4652 18.4186 19.047 18.4186 16.4725L18.4186 9.11107ZM14.5315 15.5497C14.9551 15.5497 15.2989 15.8935 15.2989 16.3171C15.2989 16.7408 14.9551 17.0846 14.5315 17.0846C14.1078 17.0846 13.7599 16.7408 13.7599 16.3171C13.7599 15.8935 14.0986 15.5497 14.5223 15.5497H14.5315ZM9.99076 15.5497C10.4144 15.5497 10.7582 15.8935 10.7582 16.3171C10.7582 16.7408 10.4144 17.0846 9.99076 17.0846C9.56713 17.0846 9.21923 16.7408 9.21923 16.3171C9.21923 15.8935 9.55793 15.5497 9.98155 15.5497H9.99076ZM5.44055 15.5497C5.86418 15.5497 6.20799 15.8935 6.20799 16.3171C6.20799 16.7408 5.86418 17.0846 5.44055 17.0846C5.01692 17.0846 4.66799 16.7408 4.66799 16.3171C4.66799 15.8935 5.00771 15.5497 5.43134 15.5497H5.44055ZM14.5315 11.5726C14.9551 11.5726 15.2989 11.9164 15.2989 12.3401C15.2989 12.7637 14.9551 13.1075 14.5315 13.1075C14.1078 13.1075 13.7599 12.7637 13.7599 12.3401C13.7599 11.9164 14.0986 11.5726 14.5223 11.5726H14.5315ZM9.99076 11.5726C10.4144 11.5726 10.7582 11.9164 10.7582 12.3401C10.7582 12.7637 10.4144 13.1075 9.99076 13.1075C9.56713 13.1075 9.21923 12.7637 9.21923 12.3401C9.21923 11.9164 9.55793 11.5726 9.98155 11.5726H9.99076ZM5.44055 11.5726C5.86418 11.5726 6.20799 11.9164 6.20799 12.3401C6.20799 12.7637 5.86418 13.1075 5.44055 13.1075C5.01692 13.1075 4.66799 12.7637 4.66799 12.3401C4.66799 11.9164 5.00771 11.5726 5.43134 11.5726H5.44055ZM13.3463 3.1506H6.61535L6.61566 4.13498C6.61566 4.5586 6.27184 4.90242 5.84821 4.90242C5.42459 4.90242 5.08077 4.5586 5.08077 4.13498L5.08023 3.17384C2.7879 3.3664 1.53488 4.75595 1.53488 7.13527V7.57619H18.4186L18.4186 7.13527C18.4227 5.87154 18.083 4.88922 17.4087 4.21387C16.8167 3.62019 15.9514 3.26562 14.8826 3.17433L14.8817 4.13498C14.8817 4.5586 14.5379 4.90242 14.1143 4.90242C13.6907 4.90242 13.3468 4.5586 13.3468 4.13498L13.3463 3.1506Z" fill="white"/>
</svg>
