<svg width="20" height="20" viewBox="0 0 20 20" fill="none" xmlns="http://www.w3.org/2000/svg">
<path d="M15.467 11.683C17.0503 11.683 18.3327 12.9438 18.3327 14.4993C18.3327 16.054 17.0503 17.3148 15.467 17.3148C13.8846 17.3148 12.6012 16.054 12.6012 14.4993C12.6012 12.9438 13.8846 11.683 15.467 11.683ZM8.40209 13.2983C9.0956 13.2983 9.65856 13.8514 9.65856 14.5327C9.65856 15.2132 9.0956 15.7672 8.40209 15.7672H2.92249C2.22898 15.7672 1.66602 15.2132 1.66602 14.5327C1.66602 13.8514 2.22898 13.2983 2.92249 13.2983H8.40209ZM4.53174 2.5C6.11507 2.5 7.39747 3.76082 7.39747 5.31547C7.39747 6.87102 6.11507 8.13184 4.53174 8.13184C2.94934 8.13184 1.66602 6.87102 1.66602 5.31547C1.66602 3.76082 2.94934 2.5 4.53174 2.5ZM17.0771 4.08194C17.7697 4.08194 18.3327 4.63502 18.3327 5.31547C18.3327 5.99682 17.7697 6.54991 17.0771 6.54991H11.5975C10.904 6.54991 10.3411 5.99682 10.3411 5.31547C10.3411 4.63502 10.904 4.08194 11.5975 4.08194H17.0771Z" fill="white"/>
</svg>
