<svg width="529" height="59" viewBox="0 0 529 59" fill="none" xmlns="http://www.w3.org/2000/svg">
<path d="M36 28.375H34.4062V23.125C34.4062 21.468 33.0633 20.125 31.4062 20.125H25.5938C23.9367 20.125 22.5938 21.468 22.5938 23.125V28.375H21C20.5852 28.375 20.25 28.7102 20.25 29.125V38.125C20.25 38.5398 20.5852 38.875 21 38.875H36C36.4148 38.875 36.75 38.5398 36.75 38.125V29.125C36.75 28.7102 36.4148 28.375 36 28.375ZM24.2812 23.125C24.2812 22.4008 24.8695 21.8125 25.5938 21.8125H31.4062C32.1305 21.8125 32.7188 22.4008 32.7188 23.125V28.375H24.2812V23.125ZM35.0625 37.1875H21.9375V30.0625H35.0625V37.1875ZM27.8438 33.9297V35.1719C27.8438 35.275 27.9281 35.3594 28.0312 35.3594H28.9688C29.0719 35.3594 29.1562 35.275 29.1562 35.1719V33.9297C29.3497 33.7908 29.4941 33.5941 29.5687 33.3679C29.6432 33.1417 29.6441 32.8977 29.5711 32.6709C29.4982 32.4442 29.3552 32.2465 29.1627 32.1062C28.9702 31.966 28.7382 31.8904 28.5 31.8904C28.2618 31.8904 28.0298 31.966 27.8373 32.1062C27.6448 32.2465 27.5018 32.4442 27.4289 32.6709C27.3559 32.8977 27.3568 33.1417 27.4313 33.3679C27.5059 33.5941 27.6503 33.7908 27.8438 33.9297Z" fill="#8F95B2"/>
<circle cx="61" cy="29.5" r="4.5" fill="white"/>
<circle cx="79" cy="29.5" r="4.5" fill="white"/>
<circle cx="97" cy="29.5" r="4.5" fill="white"/>
<circle cx="115" cy="29.5" r="4.5" fill="white"/>
<circle cx="133" cy="29.5" r="4.5" fill="white"/>
<circle cx="151" cy="29.5" r="4.5" fill="white"/>
<circle cx="169" cy="29.5" r="4.5" fill="white"/>
<rect x="0.5" y="0.5" width="528" height="58" rx="8" stroke="#D8DAE5" stroke-linecap="round" stroke-linejoin="round"/>
</svg>
