<svg width="18" height="18" viewBox="0 0 18 18" fill="none" xmlns="http://www.w3.org/2000/svg">
<path d="M9 1.40625C7.4981 1.40625 6.02993 1.85162 4.78114 2.68603C3.53236 3.52044 2.55905 4.70642 1.98429 6.094C1.40954 7.48157 1.25916 9.00842 1.55217 10.4815C1.84517 11.9545 2.56841 13.3076 3.63041 14.3696C4.69242 15.4316 6.04549 16.1548 7.51854 16.4478C8.99158 16.7408 10.5184 16.5905 11.906 16.0157C13.2936 15.441 14.4796 14.4676 15.314 13.2189C16.1484 11.9701 16.5938 10.5019 16.5938 9C16.5915 6.98671 15.7907 5.05653 14.3671 3.63292C12.9435 2.2093 11.0133 1.40852 9 1.40625ZM9 14.9062C7.83186 14.9062 6.68995 14.5599 5.71867 13.9109C4.74739 13.2619 3.99037 12.3394 3.54334 11.2602C3.09631 10.181 2.97935 8.99345 3.20724 7.84775C3.43513 6.70205 3.99765 5.64965 4.82365 4.82365C5.64966 3.99765 6.70205 3.43513 7.84775 3.20724C8.99345 2.97934 10.181 3.09631 11.2602 3.54334C12.3395 3.99037 13.2619 4.74739 13.9109 5.71866C14.5599 6.68994 14.9063 7.83185 14.9063 9C14.9045 10.5659 14.2817 12.0671 13.1744 13.1744C12.0671 14.2817 10.5659 14.9045 9 14.9062ZM11.9247 11.1945C11.4641 11.8081 10.8221 12.2613 10.0897 12.4899C9.35724 12.7185 8.57146 12.7108 7.84361 12.4681C7.11576 12.2253 6.48272 11.7597 6.03415 11.1372C5.58557 10.5147 5.34419 9.76692 5.34419 8.99965C5.34419 8.23238 5.58557 7.48455 6.03415 6.86207C6.48272 6.23959 7.11576 5.774 7.84361 5.53123C8.57146 5.28847 9.35724 5.28084 10.0897 5.50941C10.8221 5.73799 11.4641 6.19119 11.9247 6.80484C12.0591 6.98375 12.1169 7.20873 12.0855 7.43029C12.054 7.65185 11.9358 7.85184 11.7569 7.98627C11.578 8.12069 11.353 8.17854 11.1315 8.14709C10.9099 8.11563 10.7099 7.99745 10.5755 7.81854C10.3276 7.48794 9.98195 7.24372 9.58753 7.12049C9.19312 6.99725 8.76992 7.00125 8.3779 7.1319C7.98588 7.26256 7.64491 7.51325 7.40328 7.84846C7.16166 8.18368 7.03164 8.58643 7.03164 8.99965C7.03164 9.41287 7.16166 9.81562 7.40328 10.1508C7.64491 10.486 7.98588 10.7367 8.3779 10.8674C8.76992 10.9981 9.19312 11.002 9.58753 10.8788C9.98195 10.7556 10.3276 10.5114 10.5755 10.1808C10.7099 10.0018 10.9099 9.88367 11.1315 9.85221C11.353 9.82076 11.578 9.8786 11.7569 10.013C11.9358 10.1475 12.054 10.3474 12.0855 10.569C12.1169 10.7906 12.0591 11.0155 11.9247 11.1945Z" fill="#8F95B2"/>
</svg>
