<svg width="128" height="49" viewBox="0 0 128 49" fill="none" xmlns="http://www.w3.org/2000/svg">
<path d="M0.433749 43.1389L13.0374 34.1947C14.7298 32.9937 17.0048 33.0259 18.6624 34.2744L25.3366 39.301C27.8804 41.2169 31.5516 40.1466 32.6672 37.1638L45.1283 3.84649C46.642 -0.200603 52.3282 -0.305908 53.9907 3.68236L61.7019 22.1816C63.1521 25.6605 67.8759 26.1588 70.02 23.059L72.8239 19.0053C74.8135 16.1289 79.1206 16.3042 80.8699 19.3327L84.5496 25.7033C85.2163 26.8575 86.3359 27.6798 87.6368 27.9705L96.5384 29.9602C97.3378 30.1388 98.0777 30.5206 98.6866 31.0685L110.797 41.966C111.638 42.7231 112.722 43.1561 113.853 43.1873L127.979 43.5769" stroke="#EC4EC0" stroke-width="1.5" stroke-linejoin="round"/>
<path d="M0.433749 47.1404L13.0374 38.1961C14.7298 36.9951 17.0048 37.0273 18.6624 38.2758L25.3366 43.3024C27.8804 45.2184 31.5516 44.148 32.6672 41.1652L45.1283 7.84792C46.642 3.80083 52.3282 3.69553 53.9907 7.6838L61.7019 26.183C63.1521 29.6619 67.8759 30.1602 70.02 27.0604L72.8239 23.0068C74.8135 20.1304 79.1206 20.3056 80.8699 23.3341L84.5496 29.7047C85.2163 30.859 86.3359 31.6812 87.6368 31.972L96.5384 33.9616C97.3378 34.1403 98.0777 34.522 98.6866 35.0699L110.797 45.9674C111.638 46.7246 112.722 47.1575 113.853 47.1887L127.979 47.5784" stroke="#8B29C4" stroke-width="1.5" stroke-linejoin="round"/>
</svg>
