<svg width="20" height="20" viewBox="0 0 20 20" fill="none" xmlns="http://www.w3.org/2000/svg">
<path fill-rule="evenodd" clip-rule="evenodd" d="M9.67661 1.66699C5.25302 1.66699 1.66699 5.17382 1.66699 9.49971C1.66699 13.8256 5.25302 17.3324 9.67661 17.3324C11.5686 17.3324 13.3073 16.6909 14.6778 15.6183L17.2812 18.1575L17.3505 18.2159C17.5922 18.3908 17.9348 18.3709 18.1536 18.1564C18.3941 17.9205 18.3936 17.5386 18.1524 17.3033L15.5796 14.7939C16.8878 13.3998 17.6862 11.5409 17.6862 9.49971C17.6862 5.17382 14.1002 1.66699 9.67661 1.66699ZM9.67661 2.87344C13.4188 2.87344 16.4525 5.84012 16.4525 9.49971C16.4525 13.1593 13.4188 16.126 9.67661 16.126C5.93437 16.126 2.90069 13.1593 2.90069 9.49971C2.90069 5.84012 5.93437 2.87344 9.67661 2.87344Z" fill="#6C5DD3"/>
</svg>
