<svg width="14" height="14" viewBox="0 0 14 14" fill="none" xmlns="http://www.w3.org/2000/svg">
<path d="M8.17388 3.06862L10.9291 5.82382L5.30248 11.4511C5.15915 11.5942 4.98648 11.7046 4.79638 11.7745L4.68088 11.8116L1.84238 12.5858C1.7874 12.601 1.72955 12.6025 1.67386 12.5901C1.61817 12.5778 1.56633 12.5521 1.52286 12.5152C1.47939 12.4783 1.44559 12.4313 1.42442 12.3783C1.40325 12.3254 1.39534 12.268 1.40138 12.2113L1.41258 12.1553L2.18678 9.31752C2.23998 9.12152 2.33518 8.93952 2.46538 8.78552L2.54728 8.69592L8.17388 3.06792V3.06862ZM9.27148 1.97172C9.62874 1.61509 10.1105 1.41106 10.6152 1.40262C11.1199 1.39417 11.6082 1.58198 11.9772 1.92646C12.3462 2.27094 12.5671 2.74521 12.5933 3.24932C12.6195 3.75344 12.449 4.24804 12.1177 4.62892L12.0267 4.72692L11.424 5.32892L8.66878 2.57372L9.27148 1.97172Z" fill="#6B28B6"/>
</svg>
