<svg width="20" height="20" viewBox="0 0 20 20" fill="none" xmlns="http://www.w3.org/2000/svg">
<path d="M8.33301 6.66699V11.667L12.2497 14.0837L12.9163 13.0837L9.58301 11.0837V6.66699H8.33301Z" fill="#8F95B2"/>
<path d="M14.9337 9.99967C15.0593 10.828 15.0039 11.6736 14.7713 12.4784C14.5387 13.2833 14.1345 14.0281 13.5864 14.6617C13.0384 15.2953 12.3595 15.8026 11.5965 16.1487C10.8336 16.4948 10.0047 16.6714 9.16699 16.6663C5.91699 16.6663 3.33366 14.083 3.33366 10.833C3.33366 7.58301 5.91699 4.99967 9.16699 4.99967C9.75033 4.99967 10.3087 5.08301 10.8337 5.24134V3.52467C10.3003 3.39967 9.74199 3.33301 9.16699 3.33301C5.00033 3.33301 1.66699 6.66634 1.66699 10.833C1.66699 14.9997 5.00033 18.333 9.16699 18.333C10.2234 18.3374 11.2687 18.1176 12.2339 17.6882C13.1991 17.2589 14.0623 16.6296 14.7664 15.842C15.4705 15.0545 15.9995 14.1265 16.3185 13.1194C16.6375 12.1123 16.7392 11.049 16.617 9.99967H14.9337Z" fill="#8F95B2"/>
<path d="M16.6667 4.16699V1.66699H15V4.16699H12.5V5.83366H15V8.33366H16.6667V5.83366H19.1667V4.16699H16.6667Z" fill="#8F95B2"/>
</svg>
