<svg width="18" height="18" viewBox="0 0 18 18" fill="none" xmlns="http://www.w3.org/2000/svg">
<path d="M6.00047 8.07021H5.56547C4.97185 8.04876 4.38015 8.14953 3.8271 8.36628C3.27404 8.58303 2.77144 8.91113 2.35047 9.33021L2.23047 9.47021V13.6102H4.27047V11.2602L4.54547 10.9502L4.67047 10.8052C5.32143 10.1365 6.13186 9.64436 7.02547 9.37521C6.57807 9.03478 6.22521 8.58553 6.00047 8.07021Z" fill="white"/>
<path d="M15.6702 9.31459C15.2492 8.8955 14.7466 8.5674 14.1935 8.35065C13.6405 8.13391 13.0488 8.03313 12.4552 8.05459C12.2731 8.0551 12.0912 8.06512 11.9102 8.08459C11.6812 8.56804 11.338 8.98848 10.9102 9.30959C11.8641 9.57351 12.7283 10.092 13.4102 10.8096L13.5352 10.9496L13.8052 11.2596V13.6146H15.7752V9.45459L15.6702 9.31459Z" fill="white"/>
<path d="M5.54994 7.09539H5.70494C5.63292 6.47701 5.74142 5.85101 6.01735 5.29294C6.29328 4.73487 6.72484 4.26859 7.25994 3.95039C7.06597 3.65407 6.79837 3.41319 6.48334 3.25136C6.16831 3.08953 5.81665 3.01229 5.4628 3.0272C5.10895 3.04212 4.76504 3.14867 4.46475 3.33643C4.16445 3.52419 3.91806 3.78672 3.74971 4.09832C3.58136 4.40991 3.49682 4.75988 3.50437 5.11397C3.51192 5.46805 3.61129 5.8141 3.79276 6.11824C3.97424 6.42238 4.23159 6.67418 4.53961 6.84897C4.84763 7.02377 5.19577 7.11557 5.54994 7.11539V7.09539Z" fill="white"/>
<path d="M12.2144 6.72003C12.2204 6.83495 12.2204 6.95011 12.2144 7.06503C12.3103 7.08024 12.4072 7.08859 12.5044 7.09003H12.5994C12.952 7.07123 13.2937 6.96144 13.5913 6.77137C13.8889 6.58129 14.1322 6.3174 14.2975 6.00539C14.4628 5.69337 14.5445 5.34387 14.5347 4.9909C14.5248 4.63792 14.4238 4.29352 14.2413 3.99121C14.0588 3.68889 13.8012 3.43898 13.4935 3.26579C13.1858 3.09261 12.8385 3.00205 12.4853 3.00294C12.1322 3.00382 11.7854 3.09613 11.4785 3.27086C11.1717 3.44559 10.9153 3.6968 10.7344 4.00003C11.1869 4.2955 11.559 4.69868 11.8173 5.17341C12.0757 5.64815 12.2121 6.17958 12.2144 6.72003Z" fill="white"/>
<path d="M8.93422 8.96024C10.1686 8.96024 11.1692 7.95959 11.1692 6.72523C11.1692 5.49088 10.1686 4.49023 8.93422 4.49023C7.69986 4.49023 6.69922 5.49088 6.69922 6.72523C6.69922 7.95959 7.69986 8.96024 8.93422 8.96024Z" fill="white"/>
<path d="M9.055 10.15C8.40202 10.1236 7.75046 10.2296 7.13952 10.4616C6.52858 10.6936 5.97089 11.0468 5.5 11.5L5.375 11.64V14.805C5.37695 14.9081 5.39919 15.0098 5.44046 15.1043C5.48172 15.1988 5.5412 15.2842 5.61549 15.3557C5.68978 15.4272 5.77743 15.4834 5.87343 15.521C5.96943 15.5586 6.07191 15.577 6.175 15.575H11.92C12.0231 15.577 12.1256 15.5586 12.2216 15.521C12.3176 15.4834 12.4052 15.4272 12.4795 15.3557C12.5538 15.2842 12.6133 15.1988 12.6545 15.1043C12.6958 15.0098 12.718 14.9081 12.72 14.805V11.65L12.6 11.5C12.1322 11.0454 11.5764 10.6913 10.9668 10.4591C10.3572 10.227 9.70668 10.1218 9.055 10.15Z" fill="white"/>
</svg>
