<svg width="16" height="16" viewBox="0 0 16 16" fill="none" xmlns="http://www.w3.org/2000/svg">
<g clip-path="url(#clip0_615_4022)">
<path d="M7.99967 14.667L9.66634 13.3337M7.99967 14.667V8.66699V14.667ZM7.99967 14.667L6.33301 13.3337L7.99967 14.667Z" stroke="#6C5DD3" stroke-width="2" stroke-linecap="round" stroke-linejoin="round"/>
<path d="M3.35581 6.07812C2.72529 6.23679 2.1744 6.62023 1.80665 7.15642C1.4389 7.69261 1.2796 8.34463 1.35868 8.98998C1.43777 9.63534 1.74979 10.2296 2.23612 10.6611C2.72246 11.0927 3.34963 11.3317 3.99981 11.3335H4.66648" stroke="#6C5DD3" stroke-width="2" stroke-linecap="round" stroke-linejoin="round"/>
<path d="M10.5528 4.75913C10.3249 3.85684 9.76251 3.07496 8.97954 2.57197C8.19657 2.06898 7.25164 1.88252 6.33629 2.0504C5.42095 2.21827 4.60368 2.72792 4.05016 3.47602C3.49665 4.22412 3.2483 5.15471 3.35546 6.07913C3.35546 6.07913 3.45746 6.66713 3.66612 7.00046" stroke="#6C5DD3" stroke-width="2" stroke-linecap="round" stroke-linejoin="round"/>
<path d="M11.3327 11.3337C11.8034 11.3333 12.2687 11.2333 12.6979 11.0402C13.1272 10.8471 13.5107 10.5653 13.8232 10.2133C14.1357 9.86131 14.3701 9.44713 14.5109 8.99801C14.6518 8.5489 14.696 8.07504 14.6405 7.60762C14.5851 7.14021 14.4313 6.68984 14.1892 6.28615C13.9472 5.88247 13.6223 5.53462 13.2362 5.26552C12.85 4.99641 12.4112 4.81214 11.9487 4.72483C11.4862 4.63753 11.0104 4.64917 10.5527 4.75899L9.66602 5.00032" stroke="#6C5DD3" stroke-width="2" stroke-linecap="round" stroke-linejoin="round"/>
</g>
<defs>
<clipPath id="clip0_615_4022">
<rect width="16" height="16" fill="white"/>
</clipPath>
</defs>
</svg>
