<svg width="264" height="86" viewBox="0 0 264 86" fill="none" xmlns="http://www.w3.org/2000/svg">
<path fill-rule="evenodd" clip-rule="evenodd" d="M204.713 85.0681V6.65273C204.713 2.97853 207.691 0 211.365 0C215.039 0 218.018 2.97853 218.018 6.65273V85.0681H204.713Z" fill="#B16FD8"/>
<path fill-rule="evenodd" clip-rule="evenodd" d="M183.317 85.0685V33.6002C183.317 29.926 186.296 26.9475 189.97 26.9475C193.644 26.9475 196.623 29.926 196.623 33.6002V85.0685H183.317Z" fill="#FFA2C0"/>
<path fill-rule="evenodd" clip-rule="evenodd" d="M158.882 85.0686V17.7491C158.882 14.0749 161.86 11.0964 165.535 11.0964C169.209 11.0964 172.187 14.0749 172.187 17.7491V85.0686H158.882Z" fill="#B16FD8"/>
<path fill-rule="evenodd" clip-rule="evenodd" d="M137.487 85.0685V49.4513C137.487 45.7771 140.466 42.7986 144.14 42.7986C147.814 42.7986 150.793 45.7771 150.793 49.4513V85.0685H137.487Z" fill="#FFA2C0"/>
<path fill-rule="evenodd" clip-rule="evenodd" d="M113.053 85.0679V28.3159C113.053 24.6417 116.032 21.6631 119.706 21.6631C123.38 21.6631 126.359 24.6417 126.359 28.3159V85.0679H113.053Z" fill="#B16FD8"/>
<path fill-rule="evenodd" clip-rule="evenodd" d="M91.6587 85.0678V44.167C91.6587 40.4928 94.6373 37.5143 98.3115 37.5143C101.986 37.5143 104.964 40.4928 104.964 44.167V85.0678H91.6587Z" fill="#FFA2C0"/>
<path fill-rule="evenodd" clip-rule="evenodd" d="M67.2244 85.068V12.4648C67.2244 8.79055 70.203 5.81201 73.8772 5.81201C77.5514 5.81201 80.5299 8.79054 80.5299 12.4647V85.068H67.2244Z" fill="#B16FD8"/>
<path fill-rule="evenodd" clip-rule="evenodd" d="M45.829 85.0682V23.0325C45.829 19.3583 48.8076 16.3798 52.4818 16.3798C56.156 16.3798 59.1345 19.3583 59.1345 23.0325V85.0682H45.829Z" fill="#FFA2C0"/>
<path fill-rule="evenodd" clip-rule="evenodd" d="M250.386 85.0681L250.386 6.80744C250.386 3.04779 253.433 0 257.193 0C260.953 0 264 3.04779 264 6.80744V85.0681H250.386Z" fill="#B16FD8"/>
<path fill-rule="evenodd" clip-rule="evenodd" d="M228.991 85.0685L228.991 49.606C228.991 45.8464 232.039 42.7986 235.799 42.7986C239.558 42.7986 242.606 45.8464 242.606 49.6061V85.0685H228.991Z" fill="#FFA2C0"/>
<path fill-rule="evenodd" clip-rule="evenodd" d="M21.3947 85.0682V23.0325C21.3947 19.3583 24.3733 16.3798 28.0475 16.3798C31.7217 16.3798 34.7002 19.3583 34.7002 23.0325V85.0682H21.3947Z" fill="#B16FD8"/>
<path fill-rule="evenodd" clip-rule="evenodd" d="M0.0003269 85.0685V49.4513C0.0003269 45.7771 2.97885 42.7986 6.65305 42.7986C10.3273 42.7986 13.3058 45.7771 13.3058 49.4513V85.0685H0.0003269Z" fill="#FFA2C0"/>
</svg>
