<svg width="26" height="26" viewBox="0 0 26 26" fill="none" xmlns="http://www.w3.org/2000/svg">
<path fill-rule="evenodd" clip-rule="evenodd" d="M17.0625 5.6875C17.0625 4.61006 16.6345 3.57675 15.8726 2.81488C15.1108 2.05301 14.0774 1.625 13 1.625C11.9226 1.625 10.8892 2.05301 10.1274 2.81488C9.36551 3.57675 8.9375 4.61006 8.9375 5.6875V6.5H17.0625V5.6875ZM18.6875 5.6875V6.5H24.375V22.75C24.375 23.612 24.0326 24.4386 23.4231 25.0481C22.8136 25.6576 21.987 26 21.125 26H4.875C4.01305 26 3.1864 25.6576 2.5769 25.0481C1.96741 24.4386 1.625 23.612 1.625 22.75V6.5H7.3125V5.6875C7.3125 4.17908 7.91172 2.73244 8.97833 1.66583C10.0449 0.599217 11.4916 0 13 0C14.5084 0 15.9551 0.599217 17.0217 1.66583C18.0883 2.73244 18.6875 4.17908 18.6875 5.6875ZM17.6378 14.3878C17.7903 14.2352 17.876 14.0283 17.876 13.8125C17.876 13.5967 17.7903 13.3898 17.6378 13.2372C17.4852 13.0847 17.2783 12.999 17.0625 12.999C16.8467 12.999 16.6398 13.0847 16.4872 13.2372L12.1875 17.5386L10.3253 15.6747C10.2497 15.5992 10.16 15.5393 10.0613 15.4984C9.96262 15.4575 9.85683 15.4365 9.75 15.4365C9.64317 15.4365 9.53738 15.4575 9.43868 15.4984C9.33997 15.5393 9.25029 15.5992 9.17475 15.6747C9.09921 15.7503 9.03928 15.84 8.9984 15.9387C8.95752 16.0374 8.93647 16.1432 8.93647 16.25C8.93647 16.3568 8.95752 16.4626 8.9984 16.5613C9.03928 16.66 9.09921 16.7497 9.17475 16.8253L11.6122 19.2628C11.6877 19.3384 11.7774 19.3984 11.8761 19.4394C11.9748 19.4804 12.0806 19.5015 12.1875 19.5015C12.2944 19.5015 12.4002 19.4804 12.4989 19.4394C12.5976 19.3984 12.6873 19.3384 12.7628 19.2628L17.6378 14.3878Z" fill="#6C5DD3"/>
</svg>
