<svg width="63" height="32" viewBox="0 0 63 32" fill="none" xmlns="http://www.w3.org/2000/svg">
<rect x="0.5" y="0.5" width="62" height="31" rx="15.5" stroke="#D8DAE5"/>
<circle cx="16" cy="16" r="13.5" fill="#6B28B6"/>
<path d="M11.25 19.875H21.75V20.75H11.25V19.875Z" fill="white"/>
<path d="M11.25 16.8125H21.75V17.6875H11.25V16.8125Z" fill="white"/>
<path d="M20.875 11.125V13.75H12.125V11.125H20.875ZM20.875 10.25H12.125C11.8929 10.25 11.6704 10.3422 11.5063 10.5063C11.3422 10.6704 11.25 10.8929 11.25 11.125V13.75C11.25 13.9821 11.3422 14.2046 11.5063 14.3687C11.6704 14.5328 11.8929 14.625 12.125 14.625H20.875C21.1071 14.625 21.3296 14.5328 21.4937 14.3687C21.6578 14.2046 21.75 13.9821 21.75 13.75V11.125C21.75 10.8929 21.6578 10.6704 21.4937 10.5063C21.3296 10.3422 21.1071 10.25 20.875 10.25Z" fill="white"/>
<path d="M40.25 20.875H50.75V21.75H40.25V20.875Z" fill="#8F95B2"/>
<path d="M40.25 17.8125H50.75V18.6875H40.25V17.8125Z" fill="#8F95B2"/>
<path d="M43.75 12.125V14.75H41.125V12.125H43.75ZM43.75 11.25H41.125C40.8929 11.25 40.6704 11.3422 40.5063 11.5063C40.3422 11.6704 40.25 11.8929 40.25 12.125V14.75C40.25 14.9821 40.3422 15.2046 40.5063 15.3687C40.6704 15.5328 40.8929 15.625 41.125 15.625H43.75C43.9821 15.625 44.2046 15.5328 44.3687 15.3687C44.5328 15.2046 44.625 14.9821 44.625 14.75V12.125C44.625 11.8929 44.5328 11.6704 44.3687 11.5063C44.2046 11.3422 43.9821 11.25 43.75 11.25Z" fill="#8F95B2"/>
<path d="M49.875 12.125V14.75H47.25V12.125H49.875ZM49.875 11.25H47.25C47.0179 11.25 46.7954 11.3422 46.6313 11.5063C46.4672 11.6704 46.375 11.8929 46.375 12.125V14.75C46.375 14.9821 46.4672 15.2046 46.6313 15.3687C46.7954 15.5328 47.0179 15.625 47.25 15.625H49.875C50.1071 15.625 50.3296 15.5328 50.4937 15.3687C50.6578 15.2046 50.75 14.9821 50.75 14.75V12.125C50.75 11.8929 50.6578 11.6704 50.4937 11.5063C50.3296 11.3422 50.1071 11.25 49.875 11.25Z" fill="#8F95B2"/>
</svg>
