<svg width="16" height="16" viewBox="0 0 16 16" fill="none" xmlns="http://www.w3.org/2000/svg">
<path d="M13.9865 1.70676C13.5594 1.28454 12.9978 1.02534 12.3994 0.974182C11.801 0.923029 11.2035 1.08316 10.7109 1.42676C12.2944 2.08603 13.5879 3.29281 14.3554 4.82676C14.6516 4.34035 14.7763 3.76867 14.7094 3.2031C14.6425 2.63752 14.388 2.11067 13.9865 1.70676Z" fill="#8F95B2"/>
<path d="M5.07564 1.52407C4.58508 1.13446 3.96888 0.93789 3.34332 0.971461C2.71777 1.00503 2.12613 1.26642 1.68009 1.70629C1.23772 2.15159 0.975728 2.74479 0.944547 3.37169C0.913366 3.99858 1.1152 4.61485 1.5112 5.10185C2.22432 3.5152 3.49167 2.24311 5.07564 1.52407Z" fill="#8F95B2"/>
<path d="M7.28933 1.81819C6.12894 1.95374 5.03015 2.41325 4.11871 3.14411C3.20728 3.87498 2.52002 4.84768 2.13558 5.9509C1.75115 7.05412 1.68507 8.24329 1.94492 9.3823C2.20476 10.5213 2.78003 11.5642 3.60488 12.3915L2.47155 13.5249C2.4304 13.5669 2.39793 13.6166 2.376 13.6712C2.35407 13.7257 2.34309 13.7841 2.34371 13.8429C2.34433 13.9017 2.35653 13.9598 2.37961 14.0139C2.40269 14.068 2.43619 14.117 2.47821 14.1582C2.52024 14.1993 2.56995 14.2318 2.62452 14.2537C2.6791 14.2757 2.73745 14.2866 2.79626 14.286C2.85507 14.2854 2.91319 14.2732 2.96728 14.2501C3.02138 14.2271 3.0704 14.1935 3.11155 14.1515L4.29377 12.9693C5.3749 13.7874 6.69513 14.2272 8.0509 14.2207C9.40667 14.2143 10.7227 13.7621 11.796 12.9337L13.0138 14.1515C13.0988 14.2243 13.2082 14.2624 13.32 14.2581C13.4319 14.2537 13.538 14.2074 13.6171 14.1282C13.6963 14.0491 13.7427 13.943 13.747 13.8311C13.7513 13.7192 13.7132 13.6099 13.6404 13.5249L12.4449 12.3471C13.342 11.4281 13.9328 10.2539 14.1362 8.9858C14.3396 7.71768 14.1456 6.41769 13.5807 5.26422C13.0159 4.11075 12.108 3.16031 10.9816 2.54333C9.85518 1.92634 8.56543 1.67305 7.28933 1.81819ZM8.70266 13.2893C7.59803 13.434 6.47583 13.2291 5.49358 12.7035C4.51133 12.1778 3.71834 11.3577 3.22594 10.3584C2.73353 9.35907 2.56643 8.23063 2.74809 7.13148C2.92975 6.03232 3.45105 5.01765 4.23881 4.22989C5.02657 3.44213 6.04124 2.92083 7.14039 2.73918C8.23954 2.55752 9.36799 2.72462 10.3673 3.21702C11.3667 3.70942 12.1867 4.50241 12.7124 5.48466C13.238 6.46691 13.4429 7.58912 13.2982 8.69374C13.1456 9.85906 12.6123 10.9413 11.7813 11.7724C10.9502 12.6034 9.86797 13.1367 8.70266 13.2893Z" fill="#8F95B2"/>
<path d="M11.0754 9.04004L8.38203 7.70671V4.22227C8.38203 4.11618 8.33989 4.01444 8.26487 3.93942C8.18986 3.86441 8.08812 3.82227 7.98203 3.82227C7.87594 3.82227 7.7742 3.86441 7.69919 3.93942C7.62417 4.01444 7.58203 4.11618 7.58203 4.22227V8.22227L10.7198 9.77782C10.8153 9.82438 10.9254 9.83111 11.0258 9.79652C11.1262 9.76193 11.2088 9.68885 11.2554 9.59338C11.3019 9.4979 11.3086 9.38784 11.2741 9.2874C11.2395 9.18696 11.1664 9.10438 11.0709 9.05782L11.0754 9.04004Z" fill="#8F95B2"/>
</svg>
