<svg width="17" height="18" viewBox="0 0 17 18" fill="none" xmlns="http://www.w3.org/2000/svg">
<path fill-rule="evenodd" clip-rule="evenodd" d="M1.20507 0.0960342C0.644048 0.351429 0.204009 1.10705 0.0560128 2.06906C-0.0194954 2.55985 -0.0182674 15.444 0.0573073 15.9354C0.206432 16.9046 0.648794 17.6511 1.22435 17.9049C1.51175 18.0317 15.4947 18.0317 15.7821 17.9049C16.3577 17.6511 16.8001 16.9046 16.9492 15.9354C16.9934 15.6478 17 14.7495 17 8.99798C17 3.24646 16.9934 2.34811 16.9492 2.06058C16.8001 1.09137 16.3577 0.344854 15.7821 0.0910328C15.4997 -0.0335458 1.47902 -0.028713 1.20507 0.0960342ZM15.6928 1.94932C15.8916 2.20055 15.9204 2.32564 15.9325 2.98932L15.9438 3.60351H8.50617H1.06859V3.07333C1.06859 2.50388 1.09789 2.30327 1.21187 2.09322C1.37497 1.79248 0.945915 1.80844 8.54231 1.82137L15.6011 1.83345L15.6928 1.94932ZM15.9379 6.30074V7.19982H8.50325H1.06859V6.30074V5.40166H8.50325H15.9379V6.30074ZM15.9304 12.3092C15.9215 15.5537 15.9199 15.6236 15.8529 15.7757C15.8152 15.861 15.7432 15.9829 15.6928 16.0466L15.6011 16.1625H8.50325H1.40537L1.3137 16.0466C1.26328 15.9829 1.19126 15.861 1.15362 15.7757C1.08658 15.6236 1.08498 15.5537 1.07612 12.3092L1.06706 8.99798H8.50325H15.9394L15.9304 12.3092ZM2.97538 12.6723C2.75546 12.8368 2.62924 13.2667 2.67627 13.6912C2.70534 13.9536 2.87093 14.2642 3.02161 14.3389C3.10104 14.3783 3.55236 14.3931 4.32716 14.3817C5.46297 14.3651 5.51508 14.3596 5.60293 14.2485C5.77708 14.0283 5.83142 13.8487 5.83142 13.4934C5.83142 13.1381 5.77708 12.9585 5.60293 12.7383C5.51478 12.6268 5.46549 12.6219 4.29397 12.6095C3.33244 12.5993 3.05533 12.6125 2.97538 12.6723Z" fill="#8F95B2"/>
</svg>
