<svg width="24" height="24" viewBox="0 0 24 24" fill="none" xmlns="http://www.w3.org/2000/svg">
<path fill-rule="evenodd" clip-rule="evenodd" d="M11.6115 2C6.30323 2 2 6.20819 2 11.3993C2 16.5903 6.30323 20.7985 11.6115 20.7985C13.8817 20.7985 15.968 20.0289 17.6125 18.7419L20.7366 21.789L20.8197 21.8589C21.1097 22.0688 21.5209 22.045 21.7834 21.7876C22.0721 21.5046 22.0715 21.0462 21.782 20.7639L18.6948 17.7527C20.2648 16.0797 21.2231 13.8489 21.2231 11.3993C21.2231 6.20819 16.9198 2 11.6115 2ZM11.6116 3.44727C16.1023 3.44727 19.7427 7.00728 19.7427 11.3988C19.7427 15.7903 16.1023 19.3503 11.6116 19.3503C7.12089 19.3503 3.48047 15.7903 3.48047 11.3988C3.48047 7.00728 7.12089 3.44727 11.6116 3.44727Z" fill="white"/>
</svg>
