<svg width="26" height="26" viewBox="0 0 26 26" fill="none" xmlns="http://www.w3.org/2000/svg">
<path d="M15.9795 16.25C17.026 16.25 17.8753 17.0993 17.8753 18.1458L17.8742 19.188C18.001 21.5605 16.2373 22.7597 13.0729 22.7597C9.92041 22.7597 8.12533 21.5789 8.12533 19.2292V18.1458C8.12533 17.0993 8.97466 16.25 10.0212 16.25H15.9795ZM4.06283 10.8333H8.80349C8.61447 11.5689 8.62174 12.3412 8.82458 13.0731C9.02741 13.805 9.41872 14.4708 9.95941 15.0042L10.1349 15.1677L10.0212 15.1667C9.37097 15.1664 8.73856 15.3789 8.22042 15.7717C7.70227 16.1644 7.32684 16.7159 7.15141 17.342L7.11458 17.3431C3.96208 17.3431 2.16699 16.1622 2.16699 13.8125V12.7292C2.16699 11.6827 3.01633 10.8333 4.06283 10.8333ZM21.9378 10.8333C22.9843 10.8333 23.8337 11.6827 23.8337 12.7292L23.8326 13.7713C23.9593 16.1438 22.1957 17.3431 19.0312 17.3431L18.8482 17.3409C18.6816 16.7508 18.3374 16.2263 17.8624 15.8387C17.3873 15.451 16.8044 15.219 16.1929 15.1742L15.9795 15.1667L15.8657 15.1677C16.4671 14.6395 16.91 13.9547 17.1451 13.1896C17.3802 12.4245 17.3982 11.6092 17.1972 10.8344L21.9378 10.8333ZM13.0003 8.66667C13.4271 8.66667 13.8497 8.75073 14.244 8.91406C14.6384 9.07739 14.9966 9.31678 15.2984 9.61857C15.6002 9.92036 15.8396 10.2786 16.0029 10.6729C16.1663 11.0673 16.2503 11.4899 16.2503 11.9167C16.2503 12.3435 16.1663 12.7661 16.0029 13.1604C15.8396 13.5547 15.6002 13.913 15.2984 14.2148C14.9966 14.5166 14.6384 14.7559 14.244 14.9193C13.8497 15.0826 13.4271 15.1667 13.0003 15.1667C12.1384 15.1667 11.3117 14.8243 10.7022 14.2148C10.0927 13.6053 9.75033 12.7786 9.75033 11.9167C9.75033 11.0547 10.0927 10.2281 10.7022 9.61857C11.3117 9.00908 12.1384 8.66667 13.0003 8.66667ZM7.04199 3.25C7.90395 3.25 8.7306 3.59241 9.34009 4.2019C9.94958 4.8114 10.292 5.63805 10.292 6.5C10.292 7.36195 9.94958 8.1886 9.34009 8.7981C8.7306 9.40759 7.90395 9.75 7.04199 9.75C6.18004 9.75 5.35339 9.40759 4.7439 8.7981C4.1344 8.1886 3.79199 7.36195 3.79199 6.5C3.79199 5.63805 4.1344 4.8114 4.7439 4.2019C5.35339 3.59241 6.18004 3.25 7.04199 3.25ZM18.9587 3.25C19.8206 3.25 20.6473 3.59241 21.2568 4.2019C21.8663 4.8114 22.2087 5.63805 22.2087 6.5C22.2087 7.36195 21.8663 8.1886 21.2568 8.7981C20.6473 9.40759 19.8206 9.75 18.9587 9.75C18.0967 9.75 17.2701 9.40759 16.6606 8.7981C16.0511 8.1886 15.7087 7.36195 15.7087 6.5C15.7087 5.63805 16.0511 4.8114 16.6606 4.2019C17.2701 3.59241 18.0967 3.25 18.9587 3.25Z" fill="#6C5DD3"/>
</svg>
