<svg width="64" height="24" viewBox="0 0 64 24" fill="none" xmlns="http://www.w3.org/2000/svg">
<path fill-rule="evenodd" clip-rule="evenodd" d="M20.7505 20.4395C21.1645 20.4395 21.5005 20.7755 21.5005 21.1895C21.5005 21.6035 21.1645 21.9395 20.7505 21.9395H13.4975C13.0835 21.9395 12.7475 21.6035 12.7475 21.1895C12.7475 20.7755 13.0835 20.4395 13.4975 20.4395H20.7505ZM16.1163 3.65364C16.1663 3.69264 17.8393 4.99264 17.8393 4.99264C18.4473 5.35464 18.9223 6.00164 19.1023 6.76764C19.2813 7.52564 19.1513 8.30764 18.7343 8.96864C18.7315 8.97305 18.7287 8.97741 18.7191 8.99037L18.7115 9.00038C18.6438 9.08958 18.3496 9.46164 16.8646 11.3222C16.8508 11.3466 16.8351 11.3695 16.8181 11.3916C16.793 11.4244 16.7658 11.4544 16.7367 11.4818C16.6354 11.6093 16.5284 11.7433 16.4159 11.8842L16.188 12.1697C15.7177 12.7587 15.1599 13.4571 14.4981 14.2855L14.1584 14.7106C12.8807 16.3097 11.2444 18.3572 9.14827 20.9796C8.68927 21.5516 8.00127 21.8846 7.26227 21.8936L3.62327 21.9396H3.61327C3.26627 21.9396 2.96427 21.7016 2.88327 21.3626L2.06427 17.8916C1.89527 17.1726 2.06327 16.4306 2.52427 15.8546L11.9443 4.07264C11.9483 4.06864 11.9513 4.06364 11.9553 4.05964C12.9883 2.82464 14.8563 2.64264 16.1163 3.65364ZM10.894 7.787L3.69527 16.7916C3.52427 17.0056 3.46127 17.2816 3.52427 17.5466L4.20527 20.4316L7.24427 20.3936C7.53327 20.3906 7.80027 20.2616 7.97727 20.0416C8.88876 18.9012 10.0343 17.4679 11.2121 15.994L11.6288 15.4726L12.0462 14.9502C13.1508 13.5679 14.2421 12.2021 15.1551 11.0589L10.894 7.787ZM13.1103 5.01664L11.831 6.615L16.0918 9.88593C16.9119 8.8587 17.4514 8.18214 17.5013 8.11764C17.6653 7.85164 17.7293 7.47564 17.6433 7.11364C17.5553 6.74264 17.3243 6.42764 16.9913 6.22664C16.9203 6.17764 15.2353 4.86964 15.1833 4.82864C14.5493 4.32064 13.6243 4.40864 13.1103 5.01664Z" fill="#9E68F8"/>
<path fill-rule="evenodd" clip-rule="evenodd" d="M59.3846 8.7197C59.7976 8.7537 60.1056 9.1147 60.0726 9.5277C60.0666 9.5957 59.5246 16.3067 59.2126 19.1217C59.0186 20.8687 57.8646 21.9317 56.1226 21.9637C54.7896 21.9867 53.5036 21.9997 52.2466 21.9997C50.8916 21.9997 49.5706 21.9847 48.2636 21.9577C46.5916 21.9247 45.4346 20.8407 45.2456 19.1287C44.9306 16.2887 44.3916 9.5947 44.3866 9.5277C44.3526 9.1147 44.6606 8.7527 45.0736 8.7197C45.4806 8.7087 45.8486 8.9947 45.8816 9.4067C45.8848 9.45011 46.1051 12.1837 46.3453 14.8884L46.3935 15.4282C46.5144 16.7725 46.637 18.0643 46.7366 18.9637C46.8436 19.9367 47.3686 20.4387 48.2946 20.4577C50.7946 20.5107 53.3456 20.5137 56.0956 20.4637C57.0796 20.4447 57.6116 19.9527 57.7216 18.9567C58.0316 16.1627 58.5716 9.4747 58.5776 9.4067C58.6106 8.9947 58.9756 8.7067 59.3846 8.7197ZM54.3454 2C55.2634 2 56.0704 2.619 56.3074 3.506L56.5614 4.767C56.6435 5.18037 57.0062 5.48226 57.4263 5.48889L60.708 5.489C61.122 5.489 61.458 5.825 61.458 6.239C61.458 6.653 61.122 6.989 60.708 6.989L57.4556 6.98885C57.4505 6.98895 57.4455 6.989 57.4404 6.989L57.416 6.988L47.0416 6.98888C47.0336 6.98896 47.0255 6.989 47.0174 6.989L47.002 6.988L43.75 6.989C43.336 6.989 43 6.653 43 6.239C43 5.825 43.336 5.489 43.75 5.489L47.031 5.488L47.132 5.48161C47.5083 5.43279 47.821 5.147 47.8974 4.767L48.1404 3.551C48.3874 2.619 49.1944 2 50.1124 2H54.3454ZM54.3454 3.5H50.1124C49.8724 3.5 49.6614 3.661 49.6004 3.892L49.3674 5.062C49.3378 5.2102 49.2947 5.35301 49.2395 5.48927H55.2186C55.1634 5.35301 55.1201 5.2102 55.0904 5.062L54.8474 3.846C54.7964 3.661 54.5854 3.5 54.3454 3.5Z" fill="#FF754C"/>
</svg>
