<svg width="108" height="30" viewBox="0 0 108 30" fill="none" xmlns="http://www.w3.org/2000/svg">
<rect width="108" height="30" rx="8" fill="#CDF4FF"/>
<rect x="4" width="30" height="30" rx="8" fill="#FFCE73"/>
<rect width="30" height="30" rx="8" fill="white"/>
<path fill-rule="evenodd" clip-rule="evenodd" d="M14.6488 15.3543C17.6406 18.3453 18.3193 14.885 20.2242 16.7886C22.0607 18.6246 23.1162 18.9924 20.7894 21.3185C20.498 21.5528 18.6462 24.3707 12.1385 17.8647C5.62989 11.358 8.44619 9.50433 8.68048 9.21296C11.0129 6.88038 11.3744 7.94204 13.2109 9.778C15.1158 11.6824 11.657 12.3633 14.6488 15.3543Z" fill="#3F8CFF"/>
<path d="M75.7998 10.5002C75.7998 10.0228 75.9894 9.56497 76.327 9.2274C76.6646 8.88984 77.1224 8.7002 77.5998 8.7002H83.8998C84.3772 8.7002 84.835 8.88984 85.1726 9.2274C85.5102 9.56497 85.6998 10.0228 85.6998 10.5002V14.1002C85.6998 14.5776 85.5102 15.0354 85.1726 15.373C84.835 15.7106 84.3772 15.9002 83.8998 15.9002H82.0998L79.3998 18.6002V15.9002H77.5998C77.1224 15.9002 76.6646 15.7106 76.327 15.373C75.9894 15.0354 75.7998 14.5776 75.7998 14.1002V10.5002Z" fill="#3F8CFF"/>
<path d="M87.5001 12.2998V14.0998C87.5001 15.0546 87.1208 15.9703 86.4456 16.6454C85.7705 17.3205 84.8548 17.6998 83.9001 17.6998H82.8453L81.2559 19.2901C81.5079 19.4242 81.795 19.4998 82.1001 19.4998H83.9001L86.6001 22.1998V19.4998H88.4001C88.8774 19.4998 89.3353 19.3102 89.6729 18.9726C90.0104 18.635 90.2001 18.1772 90.2001 17.6998V14.0998C90.2001 13.6224 90.0104 13.1646 89.6729 12.827C89.3353 12.4894 88.8774 12.2998 88.4001 12.2998H87.5001Z" fill="#3F8CFF"/>
<path d="M53.5 11.25C53.5 10.4227 52.8273 9.75 52 9.75H43C42.1727 9.75 41.5 10.4227 41.5 11.25V18.75C41.5 19.5773 42.1727 20.25 43 20.25H52C52.8273 20.25 53.5 19.5773 53.5 18.75V16.2502L56.5 18.75V11.25L53.5 13.7498V11.25Z" fill="#3F8CFF"/>
</svg>
