<svg width="136" height="52" viewBox="0 0 136 52" fill="none" xmlns="http://www.w3.org/2000/svg">
<path fill-rule="evenodd" clip-rule="evenodd" d="M105.457 51.1179V3.42715C105.457 1.53439 106.992 0 108.885 0C110.777 0 112.312 1.53439 112.312 3.42715V51.1179H105.457Z" fill="#FFA2C0"/>
<path fill-rule="evenodd" clip-rule="evenodd" d="M94.4359 51.118V19.6199C94.4359 17.7271 95.9703 16.1928 97.863 16.1928C99.7558 16.1928 101.29 17.7271 101.29 19.6199V51.118H94.4359Z" fill="#6C5DD3" fill-opacity="0.5"/>
<path fill-rule="evenodd" clip-rule="evenodd" d="M81.8488 51.1176V10.0945C81.8488 8.2017 83.3832 6.66732 85.2759 6.66732C87.1687 6.66732 88.7031 8.20171 88.7031 10.0945V51.1176H81.8488Z" fill="#FFA2C0"/>
<path fill-rule="evenodd" clip-rule="evenodd" d="M70.8273 51.1174V29.1444C70.8273 27.2516 72.3616 25.7172 74.2544 25.7172C76.1472 25.7172 77.6816 27.2516 77.6816 29.1444V51.1174H70.8273Z" fill="#6C5DD3" fill-opacity="0.5"/>
<path fill-rule="evenodd" clip-rule="evenodd" d="M58.2402 51.1179V16.4448C58.2402 14.552 59.7746 13.0176 61.6673 13.0176C63.5601 13.0176 65.0945 14.552 65.0945 16.4448V51.1179H58.2402Z" fill="#FFA2C0"/>
<path fill-rule="evenodd" clip-rule="evenodd" d="M47.2186 51.1183V25.9702C47.2186 24.0774 48.753 22.5431 50.6458 22.5431C52.5386 22.5431 54.0729 24.0774 54.0729 25.9702V51.1183H47.2186Z" fill="#6C5DD3" fill-opacity="0.5"/>
<path fill-rule="evenodd" clip-rule="evenodd" d="M34.6306 51.1175V6.91932C34.6306 5.02656 36.165 3.49217 38.0577 3.49217C39.9505 3.49217 41.4849 5.02656 41.4849 6.91932V51.1175H34.6306Z" fill="#FFA2C0"/>
<path fill-rule="evenodd" clip-rule="evenodd" d="M23.6091 51.1178V13.2696C23.6091 11.3769 25.1434 9.84247 27.0362 9.84247C28.929 9.84247 30.4634 11.3769 30.4634 13.2696V51.1178H23.6091Z" fill="#6C5DD3" fill-opacity="0.5"/>
<path fill-rule="evenodd" clip-rule="evenodd" d="M128.986 51.1179L128.986 3.50685C128.986 1.57007 130.556 0 132.493 0C134.43 0 136 1.57007 136 3.50685V51.1179H128.986Z" fill="#FFA2C0"/>
<path fill-rule="evenodd" clip-rule="evenodd" d="M117.965 51.1184L117.965 29.225C117.965 27.2883 119.535 25.7182 121.472 25.7182C123.408 25.7182 124.978 27.2883 124.978 29.225V51.1184H117.965Z" fill="#6C5DD3" fill-opacity="0.5"/>
<path fill-rule="evenodd" clip-rule="evenodd" d="M11.022 51.1178V13.2696C11.022 11.3769 12.5564 9.84247 14.4491 9.84247C16.3419 9.84247 17.8763 11.3769 17.8763 13.2696V51.1178H11.022Z" fill="#FFA2C0"/>
<path fill-rule="evenodd" clip-rule="evenodd" d="M0.000444759 51.1174V29.1444C0.000444759 27.2516 1.53483 25.7172 3.42759 25.7172C5.32036 25.7172 6.85474 27.2516 6.85474 29.1444V51.1174H0.000444759Z" fill="#6C5DD3" fill-opacity="0.5"/>
</svg>
