<svg width="16" height="16" viewBox="0 0 16 16" fill="none" xmlns="http://www.w3.org/2000/svg">
<path fill-rule="evenodd" clip-rule="evenodd" d="M4.99966 11.4999C4.99966 11.3673 5.05233 11.2401 5.1461 11.1464C5.23987 11.0526 5.36705 10.9999 5.49966 10.9999H14.4997C14.6323 10.9999 14.7594 11.0526 14.8532 11.1464C14.947 11.2401 14.9997 11.3673 14.9997 11.4999C14.9997 11.6325 14.947 11.7597 14.8532 11.8535C14.7594 11.9472 14.6323 11.9999 14.4997 11.9999H5.49966C5.36705 11.9999 5.23987 11.9472 5.1461 11.8535C5.05233 11.7597 4.99966 11.6325 4.99966 11.4999ZM4.99966 7.49992C4.99966 7.36731 5.05233 7.24013 5.1461 7.14636C5.23987 7.0526 5.36705 6.99992 5.49966 6.99992H14.4997C14.6323 6.99992 14.7594 7.0526 14.8532 7.14636C14.947 7.24013 14.9997 7.36731 14.9997 7.49992C14.9997 7.63253 14.947 7.7597 14.8532 7.85347C14.7594 7.94724 14.6323 7.99992 14.4997 7.99992H5.49966C5.36705 7.99992 5.23987 7.94724 5.1461 7.85347C5.05233 7.7597 4.99966 7.63253 4.99966 7.49992ZM4.99966 3.49992C4.99966 3.36731 5.05233 3.24013 5.1461 3.14636C5.23987 3.0526 5.36705 2.99992 5.49966 2.99992H14.4997C14.6323 2.99992 14.7594 3.0526 14.8532 3.14636C14.947 3.24013 14.9997 3.36731 14.9997 3.49992C14.9997 3.63253 14.947 3.7597 14.8532 3.85347C14.7594 3.94724 14.6323 3.99992 14.4997 3.99992H5.49966C5.36705 3.99992 5.23987 3.94724 5.1461 3.85347C5.05233 3.7597 4.99966 3.63253 4.99966 3.49992ZM3.85366 2.14592C3.90022 2.19236 3.93716 2.24754 3.96237 2.30828C3.98757 2.36903 4.00055 2.43415 4.00055 2.49992C4.00055 2.56568 3.98757 2.63081 3.96237 2.69155C3.93716 2.7523 3.90022 2.80747 3.85366 2.85392L2.35366 4.35392C2.30721 4.40048 2.25203 4.43742 2.19129 4.46263C2.13054 4.48784 2.06542 4.50081 1.99966 4.50081C1.93389 4.50081 1.86877 4.48784 1.80802 4.46263C1.74728 4.43742 1.6921 4.40048 1.64566 4.35392L1.14566 3.85392C1.09917 3.80743 1.06229 3.75224 1.03713 3.6915C1.01197 3.63076 0.999023 3.56566 0.999023 3.49992C0.999023 3.43417 1.01197 3.36907 1.03713 3.30833C1.06229 3.24759 1.09917 3.19241 1.14566 3.14592C1.19214 3.09943 1.24733 3.06255 1.30807 3.03739C1.36881 3.01223 1.43391 2.99929 1.49966 2.99929C1.5654 2.99929 1.6305 3.01223 1.69124 3.03739C1.75198 3.06255 1.80717 3.09943 1.85366 3.14592L1.99966 3.29292L3.14565 2.14592C3.1921 2.09935 3.24728 2.06241 3.30802 2.0372C3.36877 2.012 3.43389 1.99902 3.49966 1.99902C3.56542 1.99902 3.63054 2.012 3.69129 2.0372C3.75203 2.06241 3.80721 2.09935 3.85366 2.14592ZM3.85366 6.14592C3.90022 6.19236 3.93716 6.24754 3.96237 6.30828C3.98757 6.36903 4.00055 6.43415 4.00055 6.49992C4.00055 6.56568 3.98757 6.63081 3.96237 6.69155C3.93716 6.7523 3.90022 6.80747 3.85366 6.85392L2.35366 8.35392C2.30721 8.40048 2.25203 8.43742 2.19129 8.46263C2.13054 8.48784 2.06542 8.50081 1.99966 8.50081C1.93389 8.50081 1.86877 8.48784 1.80802 8.46263C1.74728 8.43742 1.6921 8.40048 1.64566 8.35392L1.14566 7.85392C1.05177 7.76003 0.999023 7.63269 0.999023 7.49992C0.999023 7.36714 1.05177 7.2398 1.14566 7.14592C1.23954 7.05203 1.36688 6.99929 1.49966 6.99929C1.63243 6.99929 1.75977 7.05203 1.85366 7.14592L1.99966 7.29292L3.14565 6.14592C3.1921 6.09935 3.24728 6.06241 3.30802 6.0372C3.36877 6.012 3.43389 5.99902 3.49966 5.99902C3.56542 5.99902 3.63054 6.012 3.69129 6.0372C3.75203 6.06241 3.80721 6.09935 3.85366 6.14592ZM3.85366 10.1459C3.90022 10.1924 3.93716 10.2475 3.96237 10.3083C3.98757 10.369 4.00055 10.4341 4.00055 10.4999C4.00055 10.5657 3.98757 10.6308 3.96237 10.6916C3.93716 10.7523 3.90022 10.8075 3.85366 10.8539L2.35366 12.3539C2.30721 12.4005 2.25203 12.4374 2.19129 12.4626C2.13054 12.4878 2.06542 12.5008 1.99966 12.5008C1.93389 12.5008 1.86877 12.4878 1.80802 12.4626C1.74728 12.4374 1.6921 12.4005 1.64566 12.3539L1.14566 11.8539C1.05177 11.76 0.999023 11.6327 0.999023 11.4999C0.999023 11.3671 1.05177 11.2398 1.14566 11.1459C1.23954 11.052 1.36688 10.9993 1.49966 10.9993C1.63243 10.9993 1.75977 11.052 1.85366 11.1459L1.99966 11.2929L3.14565 10.1459C3.1921 10.0994 3.24728 10.0624 3.30802 10.0372C3.36877 10.012 3.43389 9.99902 3.49966 9.99902C3.56542 9.99902 3.63054 10.012 3.69129 10.0372C3.75203 10.0624 3.80721 10.0994 3.85366 10.1459Z" fill="#8F95B2"/>
</svg>
