<svg width="28" height="28" viewBox="0 0 28 28" fill="none" xmlns="http://www.w3.org/2000/svg">
<path d="M23.6004 14.1776H13.8223V4.39946C13.8223 4.27915 13.7238 4.18071 13.6035 4.18071H12.8926C11.4578 4.17925 10.0369 4.4611 8.71128 5.01011C7.3857 5.55911 6.18156 6.36445 5.16797 7.37993C4.17001 8.3748 3.37505 9.55424 2.82734 10.8526C2.25859 12.2006 1.96875 13.6307 1.96875 15.1073C1.96875 16.5838 2.25859 18.0112 2.82734 19.3592C3.37695 20.6581 4.16445 21.8284 5.16797 22.8319C6.17148 23.8354 7.33906 24.6229 8.64063 25.1725C9.98632 25.7434 11.4335 26.0364 12.8953 26.0338C14.3301 26.0353 15.751 25.7534 17.0766 25.2044C18.4022 24.6554 19.6063 23.8501 20.6199 22.8346C21.6234 21.8311 22.4109 20.6635 22.9605 19.362C23.5315 18.0163 23.8244 16.5691 23.8219 15.1073V14.3963C23.8191 14.276 23.7207 14.1776 23.6004 14.1776ZM26.0039 12.66L25.9328 11.8889C25.7004 9.37329 24.5848 6.99985 22.7855 5.20884C20.988 3.4128 18.6193 2.30146 16.0891 2.06704L15.3152 1.99595C15.1867 1.98501 15.0773 2.08345 15.0773 2.21196V12.7038C15.0773 12.8241 15.1758 12.9225 15.2961 12.9225L25.7852 12.8952C25.9137 12.8924 26.0148 12.7858 26.0039 12.66Z" fill="#FFA2C0"/>
</svg>
